<svg xmlns="http://www.w3.org/2000/svg" width="512" height="512" viewBox="0 0 512 512" fill="none"><metadata><rdf:RDF xmlns:rdf="http://www.w3.org/1999/02/22-rdf-syntax-ns#" xmlns:dc="http://purl.org/dc/elements/1.1/"><rdf:Description><dc:creator>RealFaviconGenerator</dc:creator><dc:source>https://realfavicongenerator.net</dc:source></rdf:Description></rdf:RDF></metadata><g clip-path="url(#clip0_1_2)">
<path d="M338.914 4H483.898C491.302 4.00014 495.599 12.6585 490.952 18.666L190.666 406.897L185.678 413.345H235.4C235.797 413.345 236.098 413.537 236.278 413.908C236.459 414.282 236.434 414.67 236.168 415.017L170.335 500.611C167.309 504.544 162.662 506.835 157.75 506.835H26.0866C18.8544 506.835 14.5629 498.559 18.7497 492.553L18.9557 492.269L304.029 112.914L308.84 106.512H260.763C260.011 106.511 259.446 105.585 259.983 104.857L331.736 7.6416C333.432 5.34323 336.096 4.00008 338.914 4Z" fill="url(#paint0_linear_1_2)" stroke="black" stroke-width="8"></path>
<path d="M297.201 414H505.493C506.44 414 507.04 414.482 507.316 415.025C507.556 415.5 507.561 416.009 507.218 416.504L419.172 497.801L419.063 497.901L418.962 498.01C415.695 501.509 408.702 506.382 400.827 506.382C400.825 506.382 400.824 506.382 400.823 506.382C400.801 506.382 400.767 506.381 400.724 506.381C400.637 506.38 400.508 506.379 400.337 506.378C399.995 506.375 399.488 506.372 398.826 506.367C397.502 506.358 395.56 506.343 393.087 506.325C388.142 506.289 381.072 506.238 372.578 506.176C355.589 506.051 332.902 505.884 310.105 505.714C266.894 505.391 223.433 505.052 217.479 504.971C217.679 504.643 217.958 504.244 218.345 503.775L218.355 503.763L218.365 503.751L287.674 418.419H287.675C289.908 415.67 293.416 414 297.201 414Z" fill="white" stroke="black" stroke-width="8"></path>
<path d="M77.2236 4L270.73 4C272.299 4.00004 273.334 5.86105 272.314 7.25391L209.42 93.2021C205.094 99.1141 198.252 102.592 190.991 102.592H5.99219C4.44227 102.592 3.40467 100.771 4.38184 99.373L67.4658 9.11035C69.7104 5.89839 73.3529 4.00014 77.2236 4Z" fill="white" stroke="black" stroke-width="8"></path>
</g><defs>
<linearGradient id="paint0_linear_1_2" x1="254.992" y1="0" x2="254.992" y2="510.835" gradientUnits="userSpaceOnUse">
<stop stop-color="white"></stop>
<stop offset="0.658654" stop-color="#D0D0D0"></stop>
<stop offset="1" stop-color="#8E8E8E"></stop>
</linearGradient>
<clipPath id="clip0_1_2">
<rect width="512" height="512" fill="white"></rect>
</clipPath>
</defs></svg>